<svg width="201" height="202" viewBox="0 0 201 202" fill="none" xmlns="http://www.w3.org/2000/svg">
<path d="M67.6995 168.53C105.089 186.413 149.897 170.6 167.78 133.21C185.663 95.8207 169.85 51.0132 132.46 33.1301C95.0705 15.2469 50.2631 31.06 32.3799 68.4497C14.4968 105.839 30.3099 150.647 67.6995 168.53Z" fill="#FA4612"/>
<path d="M66.0638 43.2032L65.0838 43.8419L68.9178 49.7226L62.0673 45.8092L60.9893 46.5115L66.0868 54.3312L67.0673 53.6916L63.0622 47.5501L70.1813 51.6616L71.1618 51.022L66.0638 43.2032Z" fill="white"/>
<path d="M76.3116 44.6695C75.3938 42.7737 73.6009 42.0534 71.9274 42.8646C70.2545 43.6749 69.7082 45.528 70.626 47.4238C71.5434 49.3183 73.3373 50.039 75.0102 49.2287C76.6832 48.4184 77.2299 46.5644 76.3116 44.6695ZM71.6905 46.9077C71.0109 45.5037 71.2816 44.274 72.3579 43.7528C73.4341 43.2316 74.5674 43.7816 75.2471 45.1856C75.9217 46.5778 75.6501 47.807 74.5738 48.3283C73.4975 48.8495 72.3651 48.3 71.6905 46.9077Z" fill="white"/>
<path d="M79.1974 40.0232L79.742 45.1679L77.185 40.6862L76.1109 41.0402L79.6455 47.0342L80.6334 46.7084L80.1178 41.363L82.8806 45.969L83.8686 45.6432L83.1493 38.722L82.0992 39.0671L82.7059 44.1925L80.0989 39.7263L79.1974 40.0232Z" fill="white"/>
<path d="M88.4435 39.719C88.7969 42.5438 90.3949 44.3223 92.4204 44.0697C94.4455 43.8158 95.5691 41.6974 95.2162 38.8717C94.8637 36.0474 93.2527 34.2699 91.2276 34.5238C89.202 34.7763 88.0914 36.8937 88.4435 39.719ZM94.0164 39.0226C94.2903 41.2154 93.6505 42.8021 92.283 42.9731C90.9159 43.1432 89.9181 41.7614 89.6442 39.5686C89.3702 37.3757 89.9965 35.7909 91.3641 35.62C92.7316 35.449 93.7424 36.8297 94.0164 39.0226Z" fill="white"/>
<path d="M100.042 43.6237C101.862 43.6311 102.895 42.0099 102.903 40.0991C102.911 38.1749 101.89 36.5592 100.07 36.5518C99.1476 36.548 98.4562 36.9997 98.0632 37.6743L98.0673 36.6737L96.8977 36.6687L96.8611 45.8084L98.0312 45.8125L98.045 42.4714C98.4313 43.1623 99.1193 43.6199 100.042 43.6237ZM98.0288 39.8582C98.0353 38.2463 98.9614 37.5746 99.8322 37.5782C101.054 37.5826 101.726 38.6249 101.72 40.0938C101.714 41.5636 101.034 42.6001 99.8119 42.5957C98.941 42.5922 98.0209 41.8867 98.0272 40.3265L98.0288 39.8582Z" fill="white"/>
<path d="M107.104 44.1295C108.483 44.3117 109.624 43.7149 110.208 42.5725L109.25 42.0786C108.925 42.8491 108.19 43.2506 107.237 43.1245C106.026 42.9643 105.307 41.9513 105.417 40.5236L110.443 41.1873L110.494 40.8015C110.742 38.9321 109.912 37.3679 107.979 37.1115C106.097 36.8635 104.585 38.1845 104.32 40.1949C104.045 42.2695 105.171 43.8745 107.104 44.1295ZM107.848 38.104C109.059 38.2643 109.489 39.186 109.388 40.1438L105.599 39.6427C105.97 38.5248 106.804 37.9661 107.848 38.104Z" fill="white"/>
<path d="M111.512 44.6887L112.643 44.9877L113.68 41.0669C113.97 39.9736 114.965 39.5647 115.783 39.7809C116.763 40.04 116.97 40.834 116.727 41.7515L115.66 45.7866L116.791 46.0856L117.938 41.749C118.307 40.3541 117.771 39.1773 116.376 38.8083C115.446 38.5624 114.653 38.8633 114.147 39.3073L114.382 38.4151L113.251 38.1161L111.512 44.6887Z" fill="white"/>
<path d="M130.443 45.855C129.483 45.309 128.309 45.5856 127.732 46.6029C127.167 47.5972 127.531 48.7468 128.493 49.2919C129.442 49.831 130.604 49.5483 131.169 48.5537C131.747 47.5357 131.393 46.3941 130.443 45.855Z" fill="white"/>
<path d="M147.881 55.0536L147.044 54.2359L142.14 59.2585L144.468 51.7201L143.547 50.8209L137.026 57.4995L137.863 58.3172L142.985 53.0706L140.523 60.9146L141.361 61.7314L147.881 55.0536Z" fill="white"/>
<path d="M148.677 65.4193C150.333 64.1171 150.653 62.2114 149.504 60.7499C148.354 59.2892 146.427 59.1514 144.771 60.4536C143.116 61.7559 142.796 63.6615 143.945 65.1222C145.094 66.5838 147.022 66.7216 148.677 65.4193ZM145.503 61.383C146.729 60.4186 147.988 60.4208 148.727 61.3611C149.466 62.3014 149.172 63.5245 147.946 64.489C146.73 65.4462 145.471 65.444 144.732 64.5037C143.993 63.5634 144.287 62.3394 145.503 61.383Z" fill="white"/>
<path d="M153.936 67.3687L149.03 69.009L152.855 65.5462L152.278 64.5729L147.186 69.3168L147.717 70.2114L152.826 68.5553L148.924 72.2462L149.454 73.1409L156.058 70.9464L155.494 69.9958L150.621 71.6929L154.42 68.1847L153.936 67.3687Z" fill="white"/>
<path d="M156.205 76.2905C153.525 77.2527 152.138 79.2 152.828 81.1211C153.517 83.0423 155.83 83.6762 158.51 82.7149C161.19 81.7526 162.572 79.793 161.882 77.8718C161.193 75.9506 158.884 75.3291 156.205 76.2905ZM158.101 81.5771C156.021 82.3232 154.333 82.0449 153.868 80.7481C153.402 79.4513 154.533 78.1753 156.613 77.4283C158.693 76.6821 160.377 76.948 160.842 78.2449C161.307 79.5425 160.182 80.83 158.101 81.5771Z" fill="white"/>
<path d="M154.908 88.47C155.293 90.2489 157.098 90.909 158.966 90.5044C160.846 90.0973 162.205 88.7525 161.819 86.9736C161.624 86.0714 161.034 85.4944 160.29 85.2563L161.269 85.0442L161.021 83.9007L152.089 85.8353L152.337 86.9788L155.602 86.272C155.011 86.7983 154.712 87.5678 154.908 88.47ZM158.15 85.6928C159.726 85.352 160.582 86.1109 160.766 86.9621C161.025 88.1565 160.151 89.0378 158.716 89.3482C157.28 89.6595 156.12 89.2189 155.862 88.0244C155.677 87.1733 156.168 86.1219 157.693 85.7919L158.15 85.6928Z" fill="white"/>
<path d="M155.927 95.4703C156.044 96.8566 156.87 97.844 158.111 98.1702L158.389 97.1287C157.567 96.9759 157.018 96.3439 156.937 95.3857C156.835 94.1675 157.671 93.2494 159.09 93.0521L159.514 98.1041L159.903 98.0716C161.781 97.9134 163.133 96.7689 162.97 94.8264C162.811 92.935 161.197 91.7395 159.176 91.9097C157.091 92.0852 155.764 93.5269 155.927 95.4703ZM161.972 94.9099C162.075 96.1272 161.265 96.7438 160.309 96.8501L159.989 93.0413C161.16 93.1648 161.884 93.8607 161.972 94.9099Z" fill="white"/>
<path d="M156.327 99.8718L156.276 101.041L160.328 101.219C161.457 101.27 162.069 102.155 162.032 102.999C161.987 104.012 161.255 104.384 160.307 104.342L156.138 104.157L156.087 105.326L160.567 105.524C162.009 105.588 163.045 104.814 163.109 103.372C163.151 102.411 162.688 101.701 162.146 101.299L163.068 101.34L163.12 100.171L156.327 99.8718Z" fill="white"/>
<path d="M160.299 114.77C160.558 113.696 159.97 112.645 158.832 112.37C157.72 112.102 156.717 112.769 156.457 113.844C156.201 114.905 156.793 115.944 157.905 116.212C159.042 116.486 160.043 115.832 160.299 114.77Z" fill="white"/>
<path d="M158.428 130.248L158.913 129.183L152.524 126.274L160.405 125.906L160.938 124.734L152.443 120.867L151.958 121.932L158.631 124.97L150.417 125.316L149.933 126.381L158.428 130.248Z" fill="white"/>
<path d="M148.95 134.553C150.738 135.667 152.639 135.32 153.622 133.742C154.606 132.164 154.08 130.305 152.292 129.191C150.505 128.077 148.604 128.424 147.621 130.002C146.637 131.579 147.163 133.439 148.95 134.553ZM151.667 130.195C152.99 131.02 153.416 132.205 152.784 133.22C152.151 134.235 150.9 134.374 149.576 133.549C148.263 132.731 147.837 131.546 148.47 130.531C149.103 129.516 150.354 129.377 151.667 130.195Z" fill="white"/>
<path d="M149.126 139.874L145.904 135.827L150.468 138.234L151.184 137.359L144.983 134.201L144.325 135.006L147.631 139.239L142.827 136.837L142.168 137.642L146.492 143.094L147.192 142.239L143.928 138.242L148.525 140.609L149.126 139.874Z" fill="white"/>
<path d="M141.367 145.222C139.555 143.026 137.253 142.38 135.678 143.679C134.104 144.977 134.29 147.368 136.101 149.565C137.913 151.761 140.225 152.399 141.799 151.1C143.374 149.801 143.178 147.418 141.367 145.222ZM137.034 148.795C135.628 147.09 135.318 145.408 136.382 144.531C137.445 143.654 139.028 144.286 140.434 145.991C141.84 147.696 142.159 149.371 141.096 150.247C140.033 151.124 138.44 150.5 137.034 148.795Z" fill="white"/>
<path d="M129.259 148.291C127.715 149.255 127.705 151.177 128.718 152.798C129.738 154.43 131.463 155.253 133.006 154.288C133.789 153.799 134.132 153.048 134.105 152.268L134.635 153.117L135.627 152.497L130.784 144.747L129.792 145.367L131.563 148.2C130.867 147.822 130.041 147.802 129.259 148.291ZM132.969 150.402C133.824 151.769 133.399 152.832 132.66 153.293C131.624 153.941 130.5 153.417 129.721 152.171C128.943 150.926 128.965 149.685 130.001 149.038C130.74 148.576 131.895 148.682 132.721 150.005L132.969 150.402Z" fill="white"/>
<path d="M123.208 151.542C121.944 152.125 121.298 153.238 121.415 154.516L122.488 154.422C122.351 153.598 122.758 152.866 123.632 152.463C124.742 151.952 125.89 152.424 126.56 153.69L121.955 155.813L122.119 156.167C122.908 157.879 124.444 158.759 126.215 157.943C127.939 157.148 128.512 155.224 127.663 153.382C126.787 151.481 124.979 150.726 123.208 151.542ZM125.796 157.034C124.687 157.545 123.832 156.995 123.405 156.132L126.876 154.532C127.16 155.675 126.753 156.593 125.796 157.034Z" fill="white"/>
<path d="M119.287 153.408L118.17 153.757L119.381 157.628C119.718 158.708 119.093 159.584 118.287 159.836C117.319 160.139 116.721 159.577 116.438 158.671L115.192 154.688L114.076 155.038L115.414 159.318C115.845 160.695 116.925 161.406 118.303 160.976C119.221 160.689 119.731 160.011 119.924 159.365L120.199 160.246L121.316 159.897L119.287 153.408Z" fill="white"/>
<path d="M106.728 162.219C107.827 162.099 108.616 161.188 108.488 160.025C108.363 158.888 107.394 158.17 106.296 158.291C105.21 158.411 104.434 159.32 104.559 160.457C104.687 161.62 105.643 162.339 106.728 162.219Z" fill="white"/>
<path d="M91.2553 165.714L92.4211 165.813L93.0109 158.818L96.0094 166.115L97.2919 166.223L98.0761 156.922L96.9102 156.824L96.2942 164.13L93.2054 156.512L92.0395 156.413L91.2553 165.714Z" fill="white"/>
<path d="M84.1239 158.293C83.6822 160.352 84.6533 162.023 86.4709 162.413C88.2887 162.803 89.8597 161.677 90.3014 159.618C90.7431 157.559 89.7719 155.888 87.9543 155.498C86.1367 155.108 84.5656 156.234 84.1239 158.293ZM89.1446 159.37C88.8175 160.895 87.8476 161.698 86.6783 161.447C85.5088 161.196 84.9534 160.067 85.2806 158.541C85.6051 157.029 86.575 156.226 87.7444 156.477C88.9137 156.728 89.4692 157.858 89.1446 159.37Z" fill="white"/>
<path d="M79.1246 160.273L81.8361 155.867L81.1231 160.978L82.1897 161.354L83.0528 154.449L82.072 154.103L79.2143 158.651L79.8406 153.316L78.8598 152.97L75.2013 158.89L76.2434 159.257L78.8935 154.829L78.2296 159.957L79.1246 160.273Z" fill="white"/>
<path d="M71.3319 154.759C72.7832 152.31 72.6098 149.925 70.8534 148.885C69.0979 147.845 66.9116 148.831 65.4599 151.28C64.0092 153.729 64.1943 156.121 65.9498 157.161C67.7062 158.202 69.8807 157.208 71.3319 154.759ZM66.5005 151.896C67.6272 149.995 69.1048 149.133 70.2901 149.835C71.4762 150.538 71.4182 152.241 70.2915 154.143C69.1657 156.044 67.6984 156.913 66.5131 156.21C65.3279 155.508 65.3738 153.798 66.5005 151.896Z" fill="white"/>
<path d="M64.7101 144.695C63.2758 143.576 61.4664 144.225 60.2902 145.731C59.1063 147.247 58.9239 149.15 60.3582 150.27C61.0862 150.838 61.9088 150.903 62.6319 150.61L62.0167 151.4L62.9384 152.119L68.5628 144.916L67.6402 144.196L65.5839 146.829C65.7005 146.046 65.4381 145.264 64.7101 144.695ZM63.9967 148.905C63.0046 150.175 61.8611 150.14 61.1748 149.604C60.2113 148.852 60.319 147.617 61.2223 146.459C62.1266 145.301 63.2993 144.897 64.2627 145.649C64.949 146.185 65.2451 147.307 64.2849 148.536L63.9967 148.905Z" fill="white"/>
<path d="M59.3928 139.951C58.4162 138.96 57.1491 138.731 55.9876 139.274L56.4399 140.252C57.1686 139.843 57.9951 139.978 58.6705 140.663C59.5286 141.534 59.4737 142.774 58.5095 143.833L54.9507 140.222L54.673 140.496C53.3309 141.82 53.024 143.564 54.3923 144.953C55.7247 146.304 57.7294 146.19 59.1739 144.767C60.665 143.298 60.7621 141.34 59.3928 139.951ZM55.1053 144.25C54.2481 143.38 54.4757 142.389 55.1422 141.695L57.8254 144.417C56.8461 145.072 55.8448 145 55.1053 144.25Z" fill="white"/>
<path d="M56.2752 136.863L55.5664 135.933L52.3398 138.391C51.4403 139.076 50.4032 138.788 49.8915 138.116C49.2767 137.309 49.6008 136.555 50.3561 135.98L53.6756 133.451L52.9659 132.52L49.3985 135.238C48.2511 136.113 47.9509 137.371 48.8255 138.519C49.4089 139.284 50.2194 139.533 50.8923 139.494L50.1577 140.053L50.8675 140.984L56.2752 136.863Z" fill="white"/>
<path d="M43.5091 127.707C43.9942 128.699 45.1184 129.134 46.1694 128.62C47.1973 128.117 47.5446 126.963 47.0595 125.971C46.5796 124.99 45.4607 124.567 44.4336 125.07C43.3826 125.584 43.0292 126.726 43.5091 127.707Z" fill="white"/>
<path d="M35.0731 114.572L35.376 115.702L42.1568 113.885L36.3084 119.181L36.6411 120.424L45.6572 118.008L45.3543 116.878L38.272 118.775L44.392 113.286L44.0892 112.156L35.0731 114.572Z" fill="white"/>
<path d="M39.6255 105.162C37.5376 105.439 36.2902 106.915 36.5349 108.758C36.7786 110.601 38.3674 111.702 40.4553 111.426C42.5423 111.149 43.7898 109.673 43.5451 107.829C43.3013 105.987 41.7125 104.885 39.6255 105.162ZM40.2994 110.253C38.7534 110.458 37.6715 109.814 37.5144 108.629C37.3572 107.443 38.2336 106.54 39.7806 106.335C41.3143 106.132 42.396 106.775 42.5532 107.961C42.7104 109.147 41.8331 110.05 40.2994 110.253Z" fill="white"/>
<path d="M36.0925 101.05L41.1531 102.126L36.0992 103.169L36.1031 104.3L42.8969 102.796L42.8935 101.756L37.651 100.59L42.8859 99.3897L42.8826 98.3497L36.0781 96.8899L36.0822 97.9951L41.1429 99.0056L36.0888 100.101L36.0925 101.05Z" fill="white"/>
<path d="M38.6617 92.0625C41.4574 92.5985 43.6422 91.6277 44.0274 89.6235C44.4115 87.619 42.7435 85.8961 39.947 85.3595C37.1514 84.8234 34.9634 85.8066 34.5792 87.8113C34.195 89.8158 35.8652 91.5259 38.6617 92.0625ZM39.7191 86.5467C41.8894 86.9629 43.2013 88.0619 42.9422 89.4154C42.6821 90.7685 41.06 91.2915 38.8888 90.8748C36.7185 90.4586 35.4052 89.3729 35.6643 88.0194C35.9244 86.6663 37.5487 86.1305 39.7191 86.5467Z" fill="white"/>
<path d="M45.9409 82.2563C46.5079 80.5267 45.284 79.0444 43.4682 78.4487C41.6409 77.8493 39.7886 78.3222 39.2215 80.0518C38.9334 80.9286 39.151 81.7251 39.672 82.3066L38.7208 81.9944L38.3562 83.1062L47.0397 85.9551L47.4043 84.8433L44.2296 83.8018C45.0059 83.646 45.6528 83.133 45.9409 82.2563ZM41.7386 83.0118C40.2071 82.5095 39.8525 81.4216 40.1238 80.5939C40.5052 79.433 41.704 79.1149 43.0995 79.5727C44.4959 80.0309 45.2729 80.9973 44.8924 82.1586C44.6202 82.9858 43.666 83.6443 42.1838 83.158L41.7386 83.0118Z" fill="white"/>
<path d="M48.5978 75.6813C49.1973 74.4261 48.9824 73.1569 48.0765 72.2486L47.3117 73.0066C47.9436 73.5534 48.0977 74.3762 47.683 75.2443C47.156 76.3468 45.9706 76.717 44.6474 76.1713L46.8322 71.596L46.4806 71.4288C44.7795 70.6156 43.0351 70.9204 42.1945 72.6799C41.3764 74.3925 42.1654 76.2389 43.9949 77.113C45.884 78.0155 47.7572 77.4408 48.5978 75.6813ZM43.0976 73.1113C43.6246 72.0088 44.6343 71.8861 45.5134 72.2772L43.8659 75.7259C42.917 75.0277 42.644 74.0616 43.0976 73.1113Z" fill="white"/>
<path d="M50.5143 71.6088L51.1514 70.6276L47.7506 68.4176C46.8012 67.8018 46.7241 66.7279 47.1844 66.0199C47.7368 65.1693 48.5557 65.2201 49.351 65.7377L52.8507 68.0112L53.4882 67.0292L49.7274 64.5864C48.5173 63.8003 47.2318 63.9422 46.4458 65.1523C45.9212 65.9587 45.9606 66.8059 46.2237 67.4261L45.4499 66.9232L44.8129 67.9044L50.5143 71.6088Z" fill="white"/>
<path d="M54.6232 56.7943C53.8546 57.5874 53.8273 58.7928 54.6677 59.6067C55.4893 60.4027 56.6927 60.3373 57.4613 59.5442C58.2207 58.7599 58.2392 57.5646 57.4177 56.7686C56.5777 55.9538 55.3826 56.01 54.6232 56.7943Z" fill="white"/>
<path fill-rule="evenodd" clip-rule="evenodd" d="M87.023 76.2669L98.2698 87.5137V67.1445H102.52V87.5149L113.768 76.2669L116.773 79.2721L101.898 94.1471H98.8928L84.0178 79.2721L87.023 76.2669ZM75.5179 87.7724L86.7653 99.0198H66.3955V103.27H86.7653L75.5179 114.517L78.5231 117.522L93.3981 102.647V99.6422L78.5231 84.7672L75.5179 87.7724ZM125.273 87.7724L114.026 99.0198H134.395V103.27H114.026L125.273 114.517L122.268 117.522L107.393 102.647V99.6422L122.268 84.7672L125.273 87.7724ZM98.27 114.775L87.0228 126.022L84.0176 123.017L98.8926 108.142H101.898L116.773 123.017L113.768 126.022L102.52 114.775V135.145H98.27V114.775Z" fill="white"/>
</svg>
